<?xml version="1.0" standalone="no"?>
<!DOCTYPE svg PUBLIC "-//W3C//DTD SVG 1.1//EN" "http://www.w3.org/Graphics/SVG/1.1/DTD/svg11.dtd" >
<svg xmlns="http://www.w3.org/2000/svg">
<metadata>
Created by FontForge 20120731 at Thu Dec  8 15:27:37 2016
 By admin
</metadata>
<defs>
<font id="iconfont" horiz-adv-x="1024" >
  <font-face 
    font-family="iconfont"
    font-weight="500"
    font-stretch="normal"
    units-per-em="1024"
    panose-1="2 0 6 3 0 0 0 0 0 0"
    ascent="896"
    descent="-128"
    x-height="792"
    bbox="9.46667 -148 1036 880"
    underline-thickness="0"
    underline-position="0"
    unicode-range="U+0078-E7F9"
  />
<missing-glyph 
 />
    <glyph glyph-name=".notdef" 
 />
    <glyph glyph-name=".notdef" 
 />
    <glyph glyph-name=".null" horiz-adv-x="0" 
 />
    <glyph glyph-name="nonmarkingreturn" horiz-adv-x="341" 
 />
    <glyph glyph-name="x" unicode="x" horiz-adv-x="1001" 
d="M281 543q-27 -1 -53 -1h-83q-18 0 -36.5 -6t-32.5 -18.5t-23 -32t-9 -45.5v-76h912v41q0 16 -0.5 30t-0.5 18q0 13 -5 29t-17 29.5t-31.5 22.5t-49.5 9h-133v-97h-438v97zM955 310v-52q0 -23 0.5 -52t0.5 -58t-10.5 -47.5t-26 -30t-33 -16t-31.5 -4.5q-14 -1 -29.5 -0.5
t-29.5 0.5h-32l-45 128h-439l-44 -128h-29h-34q-20 0 -45 1q-25 0 -41 9.5t-25.5 23t-13.5 29.5t-4 30v167h911zM163 247q-12 0 -21 -8.5t-9 -21.5t9 -21.5t21 -8.5q13 0 22 8.5t9 21.5t-9 21.5t-22 8.5zM316 123q-8 -26 -14 -48q-5 -19 -10.5 -37t-7.5 -25t-3 -15t1 -14.5
t9.5 -10.5t21.5 -4h37h67h81h80h64h36q23 0 34 12t2 38q-5 13 -9.5 30.5t-9.5 34.5q-5 19 -11 39h-368zM336 498v228q0 11 2.5 23t10 21.5t20.5 15.5t34 6h188q31 0 51.5 -14.5t20.5 -52.5v-227h-327z" />
    <glyph glyph-name="lishijilu" unicode="&#xe63f;" 
d="M523 658v89l-184 -106l184 -105v93q102 0 188 -50.5t136 -136.5t50 -187.5t-50 -187.5t-136.5 -136t-188.5 -50t-188.5 50t-137 136t-50.5 188h-29q0 -109 54.5 -202t147.5 -147t202.5 -54t203 54t147.5 147t54 202t-54 201.5t-147 147t-202 54.5zM490 440v-213l185 -182
l21 20l-177 174v201h-29z" />
    <glyph glyph-name="caidan" unicode="&#xe614;" 
d="M1008 766q0 -10 -7.5 -17.5t-17.5 -7.5h-758q-10 0 -17.5 7.5t-7.5 17.5v1q0 10 7.5 17.5t17.5 7.5h758q10 0 17.5 -7.5t7.5 -17.5v-1v0zM1008 387q0 -10 -7.5 -17.5t-17.5 -7.5h-758q-10 0 -17.5 7.5t-7.5 17.5v1q0 10 7.5 17.5t17.5 7.5h758q10 0 17.5 -7.5t7.5 -17.5
v-1v0zM1008 8q0 -10 -7.5 -17.5t-17.5 -7.5h-758q-10 0 -17.5 7.5t-7.5 17.5v1q0 10 7.5 17.5t17.5 7.5h758q10 0 17.5 -7.5t7.5 -17.5v-1v0zM90 770.5q0 -15.5 -11 -26.5t-26.5 -11t-26.5 11t-11 26.5t11 26.5t26.5 11t26.5 -11t11 -26.5zM90 391.5q0 -15.5 -11 -26.5
t-26.5 -11t-26.5 11t-11 26.5t11 26.5t26.5 11t26.5 -11t11 -26.5zM90 12.5q0 -15.5 -11 -26.5t-26.5 -11t-26.5 11t-11 26.5t11 26.5t26.5 11t26.5 -11t11 -26.5z" />
    <glyph glyph-name="fenxiang" unicode="&#xe662;" 
d="M710 811q79 -40 137 -106l-34 -2l-24 -2q-52 -6 -93.5 -22t-67.5 -35.5t-45 -45.5t-28.5 -47t-14.5 -43t-6 -31t-1 -15v-242q0 -9 -6.5 -15.5t-16 -6.5t-16 6.5t-6.5 15.5v242q0 4 1 13.5t6 33.5t14 47.5t28 53t45 53.5t67.5 45t92.5 31l-56 33q-1 2 -2.5 4.5t-2.5 11
t5 14.5v0q9 14 24 9zM923 582q35 -83 35 -171q0 -124 -65 -231q-47 -77 -120 -130q-118 -86 -262.5 -86t-262.5 86q-72 53 -119 130q-65 107 -65 231q0 84 31 163q1 2 3.5 4t10 6t17.5 -2l-5 2l5 -2.5t7.5 -8t3.5 -15.5v-1q-5 -12 -10 -27q-18 -59 -18 -119q0 -64 20 -125
q16 -49 45 -94q36 -56 89 -97q34 -26 72 -45q84 -41 176 -41t175 41q39 19 72 45q53 41 90 97q28 45 45 94q20 61 20 125q0 61 -19 121q-6 19 -15 39q-5 21 14 26v0q1 1 2.5 1t5.5 0.5t7.5 -1t8 -5.5t6.5 -10z" />
    <glyph glyph-name="shouye" unicode="&#xe621;" 
d="M763 755q-11 7 -23.5 4.5t-20 -13t-5 -23t13.5 -20.5q80 -54 125 -138.5t45 -180.5q0 -105 -52 -193.5t-140.5 -140t-193 -51.5t-193.5 51.5t-140.5 140t-51.5 193.5q0 96 45 180.5t125 138.5q11 8 13.5 20.5t-5 23t-20 13t-23.5 -4.5q-93 -63 -145 -161t-52 -210
q0 -91 35.5 -174t95.5 -143t143 -95.5t173.5 -35.5t173.5 35.5t143 95.5t95.5 143t35.5 174q0 112 -52.5 210t-144.5 161zM401 832q-13 0 -22 -9.5t-9 -22.5v-30q0 -13 9 -22t22 -9t22 9t9 22v30q0 13 -9 22.5t-22 9.5zM624 832q-13 0 -22 -9.5t-9 -22.5v-30q0 -13 9 -22
t22 -9t22 9t9 22v30q0 13 -9 22.5t-22 9.5zM426 669q11 -18 34 -33.5t52.5 -15.5t52 15.5t34.5 32.5q7 11 4 23.5t-13.5 19.5t-23 4.5t-20.5 -13.5q-13 -20 -34 -20q-20 0 -33 20q-7 11 -19.5 13.5t-23.5 -4t-14 -19.5t4 -23zM511 561q-13 0 -22 -9t-9 -22v-209v-0.5v-0.5
v-4t0.5 -2.5l1 -3t1.5 -3t1.5 -2.5t1.5 -2.5t2 -2.5t2.5 -2t2 -2t2.5 -2h0.5t1.5 -1l208 -104q7 -3 14 -3q19 0 28 17q6 12 2 24t-16 18l-191 96v189q0 13 -9 22t-22 9z" />
    <glyph glyph-name="ren" unicode="&#xe717;" 
d="M946 -75q0 97 -40 183.5t-114 148.5h1l-18 13q-8 7 -18 7q-14 0 -23 -12q-8 -10 -6.5 -22t11.5 -20q71 -54 109.5 -132t38.5 -166v0h-750q0 102 50.5 188t136.5 136.5t188 50.5q120 0 205 85t85 205t-85 205t-205 85t-205 -85t-85 -205q0 -86 47 -157q39 -62 103 -97
q-125 -43 -206 -149q-88 -116 -88 -262v-53h868v53v0v0zM282 589.5q0 95.5 67.5 163t162.5 67.5t162.5 -67.5t67.5 -163t-67.5 -163t-162.5 -67.5t-162.5 67.5t-67.5 163z" />
    <glyph glyph-name="pinglun" unicode="&#xe7f9;" 
d="M523 217q0 -6 4 -10t11 -4h222q6 0 10.5 4t4.5 10.5t-4.5 10.5t-10.5 4h-222q-7 0 -11 -4t-4 -11v0zM760 152h-328q-6 0 -10.5 -4.5t-4.5 -10.5t4.5 -10.5t10.5 -4.5h328q6 0 10.5 4.5t4.5 10.5t-4.5 10.5t-10.5 4.5v0zM443 206v0.5v0.5l0.5 0.5l0.5 0.5l235 238v0v0
l44 44q29 29 29 70t-29 70l-13 13q-28 29 -68.5 29t-69.5 -29l-279 -282v-1l-0.5 -0.5l-0.5 -0.5v0l-2 -2v0v0q-34 -43 -66 -209q-1 -8 5 -13q4 -4 10 -4h3q158 39 199 74q1 1 2 1v0zM323 348l216 219l109 -110l-216 -219l-109 110v0zM593 622q20 20 48 20t48 -20l13 -13
q20 -20 20 -48.5t-20 -49.5l-33 -33l-109 110l33 34v0zM305 325l104 -106q-43 -24 -151 -53q24 114 47 159v0z" />
    <glyph glyph-name="shipin" unicode="&#xe601;" horiz-adv-x="1036" 
d="M1002 647q-34 21 -78 0l-207 -100v42q0 46 -32.5 78.5t-78.5 32.5h-483q-46 0 -78.5 -28t-32.5 -68v-434q0 -47 19 -79t48 -32h44v45h-44q-3 0 -8 6.5t-10 23t-5 36.5v434q0 21 20 36t47 15h483q27 0 47 -19.5t20 -46.5v-419q0 -27 -20 -46.5t-47 -19.5h-343v-45h343
q46 0 78.5 32.5t32.5 78.5v41l207 -100q21 -11 41 -11q21 0 37 10q34 22 34 71v396q0 49 -34 70zM991 181q0 -25 -13 -33t-35 3l-226 110v237l226 109q22 11 35 2.5t13 -32.5v-396zM173 539zM140 538.5q0 13.5 9.5 23t23 9.5t23 -9.5t9.5 -23t-9.5 -22.5t-23 -9t-23 9
t-9.5 22.5zM817 263z" />
    <glyph glyph-name="gerenxinxi" unicode="&#xe612;" 
d="M505 -64q-26 0 -45 17l-348 306q-21 18 -23 46.5t17 49.5l344 392l268 -24l-2 -28l-254 22l-335 -381q-10 -12 -9 -28.5t13 -27.5l348 -306q13 -11 29 -9.5t27 13.5l335 381l-45 202l29 7l47 -218l-345 -391q-18 -22 -47 -23h-4zM656 526q-28 25 -28 65q0 39 28 70
l118 134q27 31 65 37q40 5 68 -20q28 -24 28 -63.5t-27 -71.5l-21 -23l-21 19l20 23q20 23 20.5 50.5t-18.5 43.5q-18 16 -45 13q-27 -4 -48 -27l-118 -134q-20 -23 -20 -51q0 -27 18 -43z" />
    <glyph glyph-name="tiyuyundong" unicode="&#xe691;" 
d="M517 -96q-99 0 -189 39t-155.5 104t-104 155t-38.5 189.5t38.5 189.5t104 155t155.5 104t189 39t189.5 -39t155.5 -104t103.5 -155t38.5 -189.5t-38.5 -189.5t-103.5 -155t-155.5 -104t-189.5 -39v0zM517 848q-93 0 -177.5 -36t-145.5 -97t-97 -146t-36 -177.5t36 -177.5
t97 -146t145.5 -97t177.5 -36t177.5 36t146 97t97.5 146t36 177.5t-36 177.5t-97.5 146t-146 97t-177.5 36v0zM471 612l132 -56q7 -3 9.5 -9.5t-0.5 -13.5l-2 -5q-2 -6 -9 -9t-13 0l-133 56q-7 3 -9.5 9.5t0.5 13.5l2 5q3 6 9.5 9t13.5 0v0zM332 538l124 72q6 4 13 2t11 -8
l2 -4q4 -6 2.5 -13t-8.5 -11l-124 -73q-6 -3 -13 -1.5t-11 8.5l-2 4q-4 6 -2 13t8 11v0zM653 534l69 -29q11 -4 7 -16l-6 -13q-5 -12 -16 -7l-69 29q-11 5 -7 16l6 14q5 11 16 6v0zM770 625l13 -6q11 -6 5 -17l-66 -127q-6 -11 -17 -6l-13 7q-11 6 -6 17l67 127q6 11 17 5v0
zM257 123l151 142q6 5 13 5t12 -5l3 -4q5 -5 5 -12.5t-6 -11.5l-151 -143q-5 -5 -12.5 -5t-12.5 5l-3 4q-5 5 -4.5 12.5t5.5 12.5v0zM450 336l14 -6q11 -5 6 -16l-29 -69q-5 -11 -16 -6l-14 5q-11 5 -6 17l29 68q5 11 16 7v0zM474 399l192 -36q7 -1 11 -7t3 -13l-1 -5
q-2 -7 -7.5 -11t-13.5 -3l-191 36q-7 1 -11 7t-3 13l1 5q1 7 7 11t13 3v0zM584 187l53 154q3 7 9.5 10t12.5 1l5 -1q7 -3 10 -9.5t1 -12.5l-53 -155q-2 -7 -8.5 -10t-13.5 -1l-5 2q-7 2 -10 8.5t-1 13.5v0zM453 389l125 166q4 6 11.5 7t12.5 -4l4 -3q6 -4 7 -11t-3 -13
l-125 -166q-5 -6 -12 -7t-13 3l-4 3q-5 5 -6 12t3 13v0zM655 684q21 -9 29.5 -29.5t-0.5 -41.5t-30 -29.5t-41.5 0.5t-29 30t0 41.5t29.5 29t42 -0.5v0z" />
    <glyph glyph-name="qiche" unicode="&#xe607;" 
d="M416 405v27q118 0 294 6q-4 2 -12.5 6t-12.5 6l11 25q56 -25 59 -33q4 -8 -1 -20q-8 -9 -20 -9q-27 -2 -107 -4t-144 -3t-67 -1v0zM683 306v0l-22 1l-362 2v-2q0 -15 -6 -25h29l367 -2q-6 11 -6 26v0zM974 344q-1 16 -14.5 36.5t-23.5 26.5q-11 6 -34 19
q-141 84 -203 102q-29 8 -85 14.5t-96 6.5q-23 0 -38 -3q-30 -8 -109 -72q-12 -10 -17 -15q-110 -12 -232 -29q-16 -1 -29.5 -14.5t-12.5 -39.5q-21 -17 -26 -27q-6 -14 -1 -24q7 -21 46 -39l2 -1q10 -5 51 -5h3h3v0h17q-6 15 -6 25v4h-8h-1h-7h-6q-31 0 -37 3l-1 2
q-29 14 -32 22v3v0q5 11 19 20q9 6 9 14v2q-1 12 2.5 19.5t8 10t7.5 2.5q224 28 234 28q6 0 30 19q5 4 18 14t22.5 17t21 15.5t21 14t15.5 7.5q3 1 32 1q40 0 93 -5.5t80 -13.5q52 -15 197 -99q7 -5 18.5 -11.5t14.5 -7.5q5 -3 15 -18t11 -24q0 -7 -5 -18q-3 0 -21 -2.5
t-40.5 -5t-42.5 -4.5q-3 0 -4 -1t-3 -1t-7 -0.5t-7 -0.5v-4q0 -15 -7 -25q3 0 8.5 0.5t8 0.5t3.5 1t3 1q31 3 54.5 5.5t35 4t18.5 2.5t9 1.5l2 0.5q12 3 18.5 18t4.5 27v0zM237 393q-36 0 -62.5 -24.5t-27.5 -59.5v-4q0 -10 4 -25q8 -27 31.5 -45t52.5 -18q30 0 53.5 17
t31.5 44q3 8 3 26v1v0q1 37 -24.5 62.5t-61.5 25.5zM298 306q0 -15 -7 -26q-16 -35 -56 -35q-39 0 -56 35q-6 15 -6 26v3q1 24 19 41t43 17t43 -17t20 -41v-3zM753 393q-36 0 -62.5 -24.5t-27.5 -59.5v-4q0 -10 3 -25q9 -27 32.5 -45t52.5 -18q30 0 53 17t32 44q3 8 3 26v1
v0q1 37 -24.5 62.5t-61.5 25.5zM814 306q0 -15 -7 -26q-16 -35 -56 -35t-56 35q-6 15 -6 26v3q1 24 19 41t43 17t43 -17t20 -41v-3z" />
    <glyph glyph-name="yule" unicode="&#xe646;" 
d="M699 668q0 69 -46 116.5t-113 47.5q-98 0 -137 -61q-39 61 -139 61q-67 0 -111.5 -47.5t-44.5 -116.5q0 -26 17.5 -57.5t41.5 -58t61 -58t62.5 -50.5t60.5 -44l42 -30q-7 -13 -21 -31.5t-20 -27.5q-1 -3 0 -5q2 -2 5 -1q11 7 42.5 1t41.5 -5q2 0 3 2q1 3 0 5
q-9 11 -20 34q22 -25 36 -48.5t17.5 -45.5t3.5 -38.5t-8.5 -38t-15 -33.5t-19.5 -35q-4 -7 -14 -23.5t-14 -23.5t-10 -21.5t-6.5 -25.5t1 -26.5t7.5 -32.5l15 5q-7 19 -9 33.5t3 30t8 22.5t16 27t17 27l18 33t15 32.5t10.5 36t0 37.5t-10.5 43t-26.5 45.5t-43.5 51.5
q16 13 60 43.5t77 56t70 59t57 68.5t20 67v0zM380 418q-102 73 -155 122q-85 80 -85 128q0 56 35.5 94t88.5 38q83 0 112 -46l27 -43l27 43q30 46 110 46q53 0 90 -38t37 -94q0 -21 -15 -47t-33.5 -46.5t-52.5 -48.5t-54 -42.5t-55 -39.5l-56 -40q-8 5 -21 14v0zM380 418z
M618 680q3 -11 3 -23q0 -3 -1 -9q-1 -10 10 -11h1q9 0 10 9v11q0 14 -3 28q-2 10 -12 7q-10 -2 -8 -12v0zM618 680zM485 746q18 8 39 8q51 0 80 -42q3 -5 9 -5q3 0 5 2q9 6 3 14q-16 25 -42 38.5t-55 13.5q-25 0 -48 -10q-9 -4 -5 -13.5t14 -5.5v0zM485 746zM860 386
q-55 25 -92 1q-7 44 -63 70q-38 17 -75 2t-54 -54q-6 -11 -6 -26.5t3.5 -31t10 -34.5t14 -35.5t17.5 -35t17 -31t15.5 -27t10.5 -19.5q-7 -6 -19.5 -12.5t-18.5 -10.5q-1 -1 -1 -2q1 -2 2 -3q12 0 26.5 -10.5t20.5 -12.5q1 -1 2 0t1 3q-1 5 -2 11q4 -18 4 -31t-2 -20.5
t-9 -15t-13 -11t-17 -10t-18 -11.5q-21 -15 -31.5 -23.5t-22 -27t-13.5 -41.5l15 -1q2 19 12 35t19.5 24t28.5 21q4 3 20.5 13.5t21 14.5t14 16t10.5 24t-1.5 32t-11.5 46q12 3 45 9t57 11.5t53 15t48.5 23.5t28.5 32q17 38 3.5 76.5t-50.5 56.5v0zM878 266
q-8 -16 -41 -30.5t-58.5 -20t-67.5 -13.5q-30 -6 -33 -6q-2 2 -3 5q-39 67 -55 107q-25 62 -15 84q9 19 25 30t35 11q14 0 27 -6q40 -18 44 -45l7 -49l42 27q11 6 23 6q16 0 38 -10q25 -11 34 -37q10 -26 -2 -53v0zM878 266zM828 305h-2q-8 2 -12 -6q-5 -11 -14 -18
q-2 -3 -3 -6q-1 -5 2 -9t8 -4q4 0 7 3q12 11 19 26q5 9 -5 14v0zM828 305z" />
    <glyph glyph-name="junshi01" unicode="&#xe666;" horiz-adv-x="1097" 
d="M583 21q-19 -7 -39 -12q-34 -7 -69 -7q-130 0 -221.5 91t-91.5 219.5t91.5 219.5t221.5 91t221.5 -91t91.5 -220q0 -65 -25.5 -123.5t-72.5 -102.5q-7 -6 -7 -15t6 -15.5t15 -6.5t15 6q54 50 83 116.5t29 140.5q0 96 -47.5 177.5t-129.5 128.5t-179 47t-179 -47
t-129.5 -128.5t-47.5 -177.5t47.5 -177.5t129.5 -128.5t179 -47q40 0 78 8q23 6 45 14q9 3 12.5 11t0.5 16t-11 12t-17 1zM639 48q-4 -3 -13 -8q-7 -4 -9.5 -12.5t1.5 -16.5t12.5 -10t16.5 2q7 4 15 8.5t10 13t-3 16t-13.5 9.5t-16.5 -2zM468 561h-17t-17 -7.5t-7 -17.5
t7 -17t18 -7q8 0 19 1q10 0 16.5 7.5t6 18t-8 17t-17.5 5.5zM270 357q11 51 47 90t87 54q10 3 15 12t2 18.5t-12 14t-19 2.5q-64 -19 -109 -68t-59 -113q-2 -10 3.5 -18.5t15.5 -10.5t18.5 3.5t10.5 15.5zM948 775q1 -7 2 -17q2 -10 -4 -18t-15.5 -10t-18 4t-10 16t-2.5 19
q-2 10 4.5 18t16.5 9t18 -5t9 -16zM872 754q5 -5 13 -11q8 -7 9 -17t-5.5 -17.5t-16.5 -8.5t-18 5t-14 12q-8 7 -8.5 17t6 17.5t16.5 8t18 -5.5zM978 754q7 3 15 7q9 4 18.5 0.5t14 -12.5t1 -18.5t-12.5 -13.5q-10 -5 -18 -8q-9 -4 -18.5 -0.5t-13 13t0 19t13.5 13.5z
M757 514q49 21 96 79t53 110q1 10 9 16.5t18 5t16 -9t5 -17.5q-7 -66 -62 -134.5t-117 -94.5q-9 -4 -18.5 0t-13.5 13.5t0 19t14 12.5v0z" />
    <glyph glyph-name="daohang" unicode="&#xe61f;" 
d="M606 -63h-1q-15 1 -20 16l-108 395l-397 110q-15 4 -15.5 19.5t13.5 20.5l851 331q13 5 23 -4.5t5 -22.5l-331 -851q-6 -14 -20 -14zM153 482l347 -97q11 -3 14 -15l95 -344l291 746z" />
    <glyph glyph-name="xierunkeji" unicode="&#xe638;" 
d="M623 51q-21 -8 -43 -14q-37 -9 -75 -9q-94 -2 -174 42.5t-127 122t-49 170.5t43 172t123.5 126t172 48.5t173.5 -42.5t127 -122t49 -171q1 -71 -26 -136t-78 -114q-8 -7 -8 -16.5t7 -16.5t16.5 -7t16.5 7q58 55 89 129t30 155q-2 106 -55.5 194t-144.5 138.5t-197.5 49
t-195.5 -55t-140 -143.5t-49.5 -195.5t55.5 -194t145 -139t197 -48.5q44 1 86 11q25 6 49 15q9 3 13 12t0.5 18t-12.5 13t-18 1v0zM684 81q-5 -3 -14 -8t-11.5 -14.5t2.5 -18t14.5 -11t18 2.5t16.5 10t10 14.5t-3.5 17.5t-15 10t-17.5 -3v0zM495 640h-19q-11 -1 -19 -8.5
t-7.5 -18.5t8.5 -19t19 -8q10 0 21 1q11 0 18.5 8.5t6.5 19.5t-9 18.5t-19 6.5v0zM273 414q11 57 50 100t95 61q10 3 15.5 13t2 20.5t-13.5 15.5t-20 2q-70 -23 -118.5 -77t-62.5 -125q-3 -11 3.5 -20t17.5 -11t20 4t11 17v0zM20 87q-15 33 1 65.5t67 75.5q7 6 17 4.5t16 -9
t4.5 -17t-8.5 -15.5q-78 -60 -54 -85t177 21.5t303 115.5q106 48 209.5 115t162.5 121t51 73q-5 11 -11.5 15.5t-28 8t-59.5 -3.5q-9 -2 -17 3.5t-9.5 15.5t4 18t15.5 9q136 15 150 -55q5 -26 -13 -57.5t-65.5 -74.5t-139.5 -101.5t-224 -126.5q-455 -209 -548 -116v0z
M804 846q-18 0 -31 -13t-13 -31t13 -30.5t31 -12.5t31 12.5t13 30.5t-13 31t-31 13v0z" />
    <glyph glyph-name="shoucang" unicode="&#xe7dc;" 
d="M532 88q-21 9 -42 0l-211 -92q-16 -6 -24 -0.5t-6 22.5l21 230q2 22 -13 40l-152 172q-11 13 -8 22.5t20 13.5l224 50q23 5 34 25l117 198q9 15 19 15t19 -15l117 -198q12 -20 34 -25l225 -50q17 -4 20 -13.5t-9 -22.5l-152 -172q-15 -18 -13 -40l22 -230q1 -17 -7 -22.5
t-24 0.5l-211 92v0zM520 58l211 -91q32 -14 55 2.5t20 51.5l-22 230q-1 9 5 15l152 173q24 27 15.5 53.5t-43.5 34.5l-225 50q-9 2 -13 10l-118 198q-18 31 -46 31t-46 -31l-117 -198q-5 -8 -14 -10l-224 -50q-35 -8 -44 -34.5t15 -53.5l152 -173q6 -6 5 -15l-21 -230
q-4 -35 19 -51.5t56 -2.5l211 91q3 2 8 2t9 -2zM512 512q-60 0 -102 -42t-42 -102q0 -7 4.5 -11.5t11.5 -4.5t11.5 4.5t4.5 11.5q0 46 33 79t79 33q7 0 11.5 4.5t4.5 11.5t-4.5 11.5t-11.5 4.5z" />
    <glyph glyph-name="shoucangfill" unicode="&#xe627;" 
d="M777 -44q-5 0 -9 2l-255 135l-256 -135q-11 -5 -21 2t-8 19l49 285l-206 201q-9 9 -5.5 20.5t16.5 13.5l285 42l128 258q5 11 17.5 11t18.5 -11l127 -258l286 -42q12 -2 16 -13.5t-5 -20.5l-207 -201l49 -285q2 -12 -8 -19q-5 -4 -12 -4z" />
    <glyph glyph-name="information" unicode="&#xe6aa;" 
d="M508 819q-8 0 -16 -3q17 -5 28 -19.5t11 -32.5v-9h32v9q0 23 -16.5 39t-38.5 16zM573 39q-8 -31 -31 -54t-54 -31q16 -5 31 -5q41 0 73.5 25.5t42.5 64.5h-62zM521 759q-24 0 -53 -4q124 -20 208 -117.5t84 -227.5v-364h106v364q0 95 -46.5 175t-126 127t-172.5 47z
M286 472q-5 0 -9 3.5t-4 8.5q0 19 4 37q13 63 66 105q13 10 28 19q11 6 17 -5t-5 -17q-35 -20 -58 -53v3q-9 -8 -20 -46q-2 -6 -3 -11q-3 -15 -3 -32q0 -5 -4 -8.5t-9 -3.5zM857 33q-5 0 -9 4t-4 9v364q0 91 -44.5 168.5t-121 122.5t-166.5 45t-166.5 -45t-121 -122.5
t-44.5 -168.5v-364q0 -5 -3.5 -9t-9 -4t-9 4t-3.5 9v364q0 98 48 181.5t130 132t179 48.5t179.5 -48.5t130.5 -132t48 -181.5v-364q0 -5 -4 -9t-9 -4zM567.5 743q-5.5 0 -9 3.5t-3.5 8.5v9q0 17 -12.5 29.5t-30 12.5t-30 -12.5t-12.5 -29.5v-9q0 -5 -4 -8.5t-9 -3.5
t-8.5 3.5t-3.5 8.5v9q0 28 19.5 48t47.5 20t48 -20t20 -48v-9q0 -5 -3.5 -8.5t-9 -3.5zM928 33h-832q-5 0 -8.5 4t-3.5 9t3.5 9t8.5 4h832q5 0 9 -4t4 -9t-4 -9t-9 -4zM512 -63q-46 0 -82 28t-47 73q-3 12 9.5 15t15.5 -9q9 -36 38 -59t66 -23t66 22.5t38 58.5q4 12 16 8.5
t9 -15.5q-12 -44 -47.5 -71.5t-81.5 -27.5z" />
    <glyph glyph-name="xiaoxi" unicode="&#xe60f;" 
d="M241 23q-10 0 -16 9q-7 10 0 20q57 79 50 111q-2 11 -23 25q-5 3 -8 5q-77 44 -119 107.5t-42 134.5q0 84 57.5 155.5t156.5 113t215 41.5t215 -41.5t156.5 -113t57.5 -155.5t-57.5 -155.5t-156.5 -113t-215 -41.5q-28 0 -63 4h-6q-25 0 -59 -32q-31 -29 -69 -49t-71 -25
h-3zM512 708q-106 0 -196 -36.5t-142.5 -99.5t-52.5 -137q0 -61 37.5 -116t106.5 -95q2 -1 8 -5q35 -22 40 -49q7 -36 -27 -95q40 19 72 49q29 28 49 35.5t45 6.5q34 -3 60 -3q106 0 196 36.5t142.5 99t52.5 136.5t-52.5 137t-142.5 99.5t-196 36.5zM199.5 392q-8.5 0 -14 6
t-5.5 14q0 97 92.5 166.5t223.5 69.5q8 0 14 -6t6 -14t-6 -13.5t-14 -5.5q-114 0 -195.5 -58t-81.5 -139q0 -8 -5.5 -14t-14 -6z" />
    <glyph glyph-name="shouyeshouye" unicode="&#xe602;" 
d="M1007 354l-495 463l-495 -462q-7 -7 -7.5 -17t6.5 -17t16.5 -7.5t17.5 6.5l462 431l462 -433q7 -6 17 -6t17 8q7 7 6.5 17t-7.5 17zM856 344q-10 0 -17 -7t-7 -17v-368h-192v256h-256v-256h-192v368q0 10 -7 17t-17 7t-17 -7t-7 -17v-416h288v256h160v-256h288v416
q0 10 -7 17t-17 7zM688 688h144v-128q0 -10 7 -17t17 -7t17 7t7 17v176h-192q-10 0 -17 -7t-7 -17t7 -17t17 -7z" />
    <glyph glyph-name="licai" unicode="&#xe622;" 
d="M825 541q-27 16 -58 16q-29 0 -53.5 -11.5t-34.5 -31.5q-6 -12 -20 -29t-35.5 -36.5t-51 -33t-59 -13.5t-59.5 13.5t-51.5 33t-35.5 36.5t-20 29q-10 20 -34.5 31.5t-53.5 11.5q-34 0 -58 -16q-86 -45 -51 -164q31 -106 132 -206q109 -107 213 -119q9 -1 17 -1
q102 2 216 107q103 95 141 203q44 121 -32 173q-6 4 -12 7zM709 498q5 10 21.5 17.5t35.5 7.5q24 0 41 -10l1 -2h1q56 -28 36 -110q-4 -18 -10 -32q-171 -101 -348 1q16 -2 24 -2q37 0 73.5 16t61.5 39.5t40.5 42.5t22.5 32zM512 85q-48 1 -103.5 32t-101.5 77.5
t-81.5 101.5t-46.5 104q-20 82 36 110h1l1 1q17 11 41 11q21 0 37 -7.5t20 -17.5q8 -16 28.5 -40.5t47.5 -45.5q133 -116 277 -116q77 0 153 38q-47 -93 -138 -169.5t-171 -78.5zM512 475q50 0 86 35.5t36 86t-36 85.5t-86 35t-86 -35.5t-36 -86t36 -85.5t86 -35zM512 683
q36 0 62 -25.5t26 -62t-26 -61.5t-62 -25t-62 25.5t-26 62t26 61.5t62 25z" />
    <glyph glyph-name="shehuifuwujigou" unicode="&#xe620;" 
d="M620 449l-110 -111l-110 111q-36 36 -36 75q0 27 16 43.5t44 16.5q22 0 34 -8t32 -31l5 -6q6 -6 15 -6t15 6l4 6q14 16 21 22.5t18.5 11.5t27.5 5q27 0 43 -16.5t16 -43.5q0 -39 -35 -75zM596 623q-30 0 -49 -10.5t-37 -30.5q-18 20 -37 30.5t-49 10.5q-44 0 -72 -28
t-28 -71q0 -56 48 -102l124 -125q5 -6 14 -6v0v0q8 0 14 6l124 125q47 46 47 102q0 43 -28 71t-71 28zM745 220l-220 -219v129h-20q-94 1 -174 48t-126 127t-46 174t47 174.5t127.5 127t176 46.5t176.5 -46.5t128 -127t47 -174.5q0 -74 -30.5 -142t-85.5 -117zM510 866
q-106 0 -196 -52t-142.5 -141t-52.5 -194q0 -101 48.5 -188t133 -140t184.5 -59v-186l287 285q61 55 94.5 130.5t33.5 157.5q0 105 -52 194t-142 141t-196 52z" />
  </font>
</defs>
</svg>
